<svg width="162" height="20" viewBox="0 0 162 20" fill="none" xmlns="http://www.w3.org/2000/svg">
<path d="M2.82 19.8L4.9 14.09L4.94 15.77L0.23 4.2H2.74L6.08 12.76H5.44L8.69 4.2H11.1L5.08 19.8H2.82ZM16.7008 15.3C15.6074 15.3 14.6474 15.0633 13.8208 14.59C12.9941 14.1167 12.3474 13.46 11.8808 12.62C11.4208 11.78 11.1908 10.8133 11.1908 9.72C11.1908 8.54 11.4174 7.51667 11.8708 6.65C12.3241 5.77667 12.9541 5.1 13.7608 4.62C14.5674 4.14 15.5008 3.9 16.5608 3.9C17.6808 3.9 18.6308 4.16333 19.4108 4.69C20.1974 5.21 20.7808 5.94667 21.1608 6.9C21.5408 7.85333 21.6841 8.97667 21.5908 10.27H19.2008V9.39C19.1941 8.21667 18.9874 7.36 18.5808 6.82C18.1741 6.28 17.5341 6.01 16.6608 6.01C15.6741 6.01 14.9408 6.31667 14.4608 6.93C13.9808 7.53667 13.7408 8.42667 13.7408 9.6C13.7408 10.6933 13.9808 11.54 14.4608 12.14C14.9408 12.74 15.6408 13.04 16.5608 13.04C17.1541 13.04 17.6641 12.91 18.0908 12.65C18.5241 12.3833 18.8574 12 19.0908 11.5L21.4708 12.22C21.0574 13.1933 20.4174 13.95 19.5508 14.49C18.6908 15.03 17.7408 15.3 16.7008 15.3ZM12.9808 10.27V8.45H20.4108V10.27H12.9808Z" fill="#518DD3"/>
<path d="M27.582 15.3C26.2487 15.3 25.1654 15 24.332 14.4C23.4987 13.8 22.992 12.9567 22.812 11.87L25.272 11.49C25.3987 12.0233 25.6787 12.4433 26.112 12.75C26.5454 13.0567 27.092 13.21 27.752 13.21C28.332 13.21 28.7787 13.0967 29.092 12.87C29.412 12.6367 29.572 12.32 29.572 11.92C29.572 11.6733 29.512 11.4767 29.392 11.33C29.2787 11.1767 29.0254 11.03 28.632 10.89C28.2387 10.75 27.6354 10.5733 26.822 10.36C25.9154 10.12 25.1954 9.86333 24.662 9.59C24.1287 9.31 23.7454 8.98 23.512 8.6C23.2787 8.22 23.162 7.76 23.162 7.22C23.162 6.54667 23.3387 5.96 23.692 5.46C24.0454 4.96 24.5387 4.57667 25.172 4.31C25.8054 4.03667 26.552 3.9 27.412 3.9C28.252 3.9 28.9954 4.03 29.642 4.29C30.2954 4.55 30.822 4.92 31.222 5.4C31.622 5.88 31.8687 6.44333 31.962 7.09L29.502 7.53C29.442 7.07 29.232 6.70667 28.872 6.44C28.5187 6.17333 28.0454 6.02333 27.452 5.99C26.8854 5.95667 26.4287 6.04333 26.082 6.25C25.7354 6.45 25.562 6.73333 25.562 7.1C25.562 7.30667 25.632 7.48333 25.772 7.63C25.912 7.77667 26.192 7.92333 26.612 8.07C27.0387 8.21667 27.672 8.39667 28.512 8.61C29.372 8.83 30.0587 9.08333 30.572 9.37C31.092 9.65 31.4654 9.98667 31.692 10.38C31.9254 10.7733 32.042 11.25 32.042 11.81C32.042 12.8967 31.6454 13.75 30.852 14.37C30.0654 14.99 28.9754 15.3 27.582 15.3Z" fill="#518DD3" fill-opacity="0.4"/>
<path d="M27.582 15.3C26.2487 15.3 25.1654 15 24.332 14.4C23.4987 13.8 22.992 12.9567 22.812 11.87L25.272 11.49C25.3987 12.0233 25.6787 12.4433 26.112 12.75C26.5454 13.0567 27.092 13.21 27.752 13.21C28.332 13.21 28.7787 13.0967 29.092 12.87C29.412 12.6367 29.572 12.32 29.572 11.92C29.572 11.6733 29.512 11.4767 29.392 11.33C29.2787 11.1767 29.0254 11.03 28.632 10.89C28.2387 10.75 27.6354 10.5733 26.822 10.36C25.9154 10.12 25.1954 9.86333 24.662 9.59C24.1287 9.31 23.7454 8.98 23.512 8.6C23.2787 8.22 23.162 7.76 23.162 7.22C23.162 6.54667 23.3387 5.96 23.692 5.46C24.0454 4.96 24.5387 4.57667 25.172 4.31C25.8054 4.03667 26.552 3.9 27.412 3.9C28.252 3.9 28.9954 4.03 29.642 4.29C30.2954 4.55 30.822 4.92 31.222 5.4C31.622 5.88 31.8687 6.44333 31.962 7.09L29.502 7.53C29.442 7.07 29.232 6.70667 28.872 6.44C28.5187 6.17333 28.0454 6.02333 27.452 5.99C26.8854 5.95667 26.4287 6.04333 26.082 6.25C25.7354 6.45 25.562 6.73333 25.562 7.1C25.562 7.30667 25.632 7.48333 25.772 7.63C25.912 7.77667 26.192 7.92333 26.612 8.07C27.0387 8.21667 27.672 8.39667 28.512 8.61C29.372 8.83 30.0587 9.08333 30.572 9.37C31.092 9.65 31.4654 9.98667 31.692 10.38C31.9254 10.7733 32.042 11.25 32.042 11.81C32.042 12.8967 31.6454 13.75 30.852 14.37C30.0654 14.99 28.9754 15.3 27.582 15.3Z" fill="#2FB044" fill-opacity="0.4"/>
<path d="M41.2923 15V9.8C41.2923 9.46 41.269 9.08333 41.2223 8.67C41.1757 8.25667 41.0657 7.86 40.8923 7.48C40.7257 7.09333 40.4723 6.77667 40.1323 6.53C39.799 6.28333 39.3457 6.16 38.7723 6.16C38.4657 6.16 38.1623 6.21 37.8623 6.31C37.5623 6.41 37.289 6.58333 37.0423 6.83C36.8023 7.07 36.609 7.40333 36.4623 7.83C36.3157 8.25 36.2423 8.79 36.2423 9.45L34.8123 8.84C34.8123 7.92 34.989 7.08667 35.3423 6.34C35.7023 5.59333 36.229 5 36.9223 4.56C37.6157 4.11333 38.469 3.89 39.4823 3.89C40.2823 3.89 40.9423 4.02333 41.4623 4.29C41.9823 4.55667 42.3957 4.89667 42.7023 5.31C43.009 5.72333 43.2357 6.16333 43.3823 6.63C43.529 7.09667 43.6223 7.54 43.6623 7.96C43.709 8.37333 43.7323 8.71 43.7323 8.97V15H41.2923ZM33.8023 15V0.599999H35.9523V8.18H36.2423V15H33.8023ZM50.7019 15.3C49.6219 15.3 48.6785 15.0567 47.8719 14.57C47.0652 14.0833 46.4385 13.4133 45.9919 12.56C45.5519 11.7 45.3319 10.7133 45.3319 9.6C45.3319 8.46667 45.5585 7.47333 46.0119 6.62C46.4652 5.76667 47.0952 5.1 47.9019 4.62C48.7085 4.14 49.6419 3.9 50.7019 3.9C51.7885 3.9 52.7352 4.14333 53.5419 4.63C54.3485 5.11667 54.9752 5.79 55.4219 6.65C55.8685 7.50333 56.0919 8.48667 56.0919 9.6C56.0919 10.72 55.8652 11.71 55.4119 12.57C54.9652 13.4233 54.3385 14.0933 53.5319 14.58C52.7252 15.06 51.7819 15.3 50.7019 15.3ZM50.7019 13.04C51.6619 13.04 52.3752 12.72 52.8419 12.08C53.3085 11.44 53.5419 10.6133 53.5419 9.6C53.5419 8.55333 53.3052 7.72 52.8319 7.1C52.3585 6.47333 51.6485 6.16 50.7019 6.16C50.0552 6.16 49.5219 6.30667 49.1019 6.6C48.6885 6.88667 48.3819 7.29 48.1819 7.81C47.9819 8.32333 47.8819 8.92 47.8819 9.6C47.8819 10.6467 48.1185 11.4833 48.5919 12.11C49.0719 12.73 49.7752 13.04 50.7019 13.04ZM59.7945 15L56.4945 4.18L58.8545 4.2L60.9645 11.13L63.1045 4.2H65.1345L67.2645 11.13L69.3845 4.2H71.7445L68.4445 15H66.5645L64.1145 7.57L61.6745 15H59.7945Z" fill="#2FB044"/>
<path d="M108.504 15.3C107.724 15.3 107.064 15.1533 106.524 14.86C105.984 14.56 105.574 14.1633 105.294 13.67C105.021 13.1767 104.884 12.6333 104.884 12.04C104.884 11.52 104.971 11.0533 105.144 10.64C105.318 10.22 105.584 9.86 105.944 9.56C106.304 9.25333 106.771 9.00333 107.344 8.81C107.778 8.67 108.284 8.54333 108.864 8.43C109.451 8.31667 110.084 8.21333 110.764 8.12C111.451 8.02 112.168 7.91333 112.914 7.8L112.054 8.29C112.061 7.54333 111.894 6.99333 111.554 6.64C111.214 6.28667 110.641 6.11 109.834 6.11C109.348 6.11 108.878 6.22333 108.424 6.45C107.971 6.67667 107.654 7.06667 107.474 7.62L105.274 6.93C105.541 6.01667 106.048 5.28333 106.794 4.73C107.548 4.17667 108.561 3.9 109.834 3.9C110.794 3.9 111.638 4.05667 112.364 4.37C113.098 4.68333 113.641 5.19667 113.994 5.91C114.188 6.29 114.304 6.68 114.344 7.08C114.384 7.47333 114.404 7.90333 114.404 8.37V15H112.294V12.66L112.644 13.04C112.158 13.82 111.588 14.3933 110.934 14.76C110.288 15.12 109.478 15.3 108.504 15.3ZM108.984 13.38C109.531 13.38 109.998 13.2833 110.384 13.09C110.771 12.8967 111.078 12.66 111.304 12.38C111.538 12.1 111.694 11.8367 111.774 11.59C111.901 11.2833 111.971 10.9333 111.984 10.54C112.004 10.14 112.014 9.81667 112.014 9.57L112.754 9.79C112.028 9.90333 111.404 10.0033 110.884 10.09C110.364 10.1767 109.918 10.26 109.544 10.34C109.171 10.4133 108.841 10.4967 108.554 10.59C108.274 10.69 108.038 10.8067 107.844 10.94C107.651 11.0733 107.501 11.2267 107.394 11.4C107.294 11.5733 107.244 11.7767 107.244 12.01C107.244 12.2767 107.311 12.5133 107.444 12.72C107.578 12.92 107.771 13.08 108.024 13.2C108.284 13.32 108.604 13.38 108.984 13.38ZM120.928 15.3C119.934 15.3 119.068 15.05 118.328 14.55C117.588 14.05 117.014 13.37 116.608 12.51C116.201 11.65 115.998 10.68 115.998 9.6C115.998 8.50667 116.201 7.53333 116.608 6.68C117.021 5.82 117.604 5.14333 118.358 4.65C119.111 4.15 119.998 3.9 121.018 3.9C122.044 3.9 122.904 4.15 123.598 4.65C124.298 5.14333 124.828 5.82 125.188 6.68C125.548 7.54 125.728 8.51333 125.728 9.6C125.728 10.6733 125.548 11.6433 125.188 12.51C124.828 13.37 124.291 14.05 123.578 14.55C122.864 15.05 121.981 15.3 120.928 15.3ZM121.298 13.14C121.944 13.14 122.464 12.9933 122.858 12.7C123.258 12.4 123.548 11.9833 123.728 11.45C123.914 10.9167 124.008 10.3 124.008 9.6C124.008 8.89333 123.914 8.27667 123.728 7.75C123.548 7.21667 123.264 6.80333 122.878 6.51C122.491 6.21 121.991 6.06 121.378 6.06C120.731 6.06 120.198 6.22 119.778 6.54C119.358 6.85333 119.048 7.28 118.848 7.82C118.648 8.35333 118.548 8.94667 118.548 9.6C118.548 10.26 118.644 10.86 118.838 11.4C119.038 11.9333 119.341 12.3567 119.748 12.67C120.154 12.9833 120.671 13.14 121.298 13.14ZM124.008 15V7.42H123.708V0.599999H126.138V15H124.008ZM141.502 15V8.44C141.502 7.7 141.318 7.12333 140.952 6.71C140.585 6.29 140.088 6.08 139.462 6.08C139.075 6.08 138.728 6.17 138.422 6.35C138.115 6.52333 137.872 6.78333 137.692 7.13C137.512 7.47 137.422 7.87667 137.422 8.35L136.352 7.72C136.345 6.97333 136.512 6.31667 136.852 5.75C137.198 5.17667 137.665 4.73 138.252 4.41C138.838 4.09 139.492 3.93 140.212 3.93C141.405 3.93 142.318 4.29 142.952 5.01C143.592 5.72333 143.912 6.66333 143.912 7.83V15H141.502ZM128.512 15V4.2H130.642V7.55H130.942V15H128.512ZM135.022 15V8.47C135.022 7.71667 134.838 7.13 134.472 6.71C134.105 6.29 133.605 6.08 132.972 6.08C132.358 6.08 131.865 6.29 131.492 6.71C131.125 7.13 130.942 7.67667 130.942 8.35L129.862 7.63C129.862 6.93 130.035 6.3 130.382 5.74C130.728 5.18 131.195 4.74 131.782 4.42C132.375 4.09333 133.038 3.93 133.772 3.93C134.578 3.93 135.252 4.10333 135.792 4.45C136.338 4.79 136.745 5.25667 137.012 5.85C137.285 6.43667 137.422 7.1 137.422 7.84V15H135.022ZM146.31 2.56V0.35H148.72V2.56H146.31ZM146.31 15V4.2H148.72V15H146.31ZM158.775 15V9.8C158.775 9.46 158.752 9.08333 158.705 8.67C158.659 8.25667 158.549 7.86 158.375 7.48C158.209 7.09333 157.955 6.77667 157.615 6.53C157.282 6.28333 156.829 6.16 156.255 6.16C155.949 6.16 155.645 6.21 155.345 6.31C155.045 6.41 154.772 6.58333 154.525 6.83C154.285 7.07 154.092 7.40333 153.945 7.83C153.799 8.25 153.725 8.79 153.725 9.45L152.295 8.84C152.295 7.92 152.472 7.08667 152.825 6.34C153.185 5.59333 153.712 5 154.405 4.56C155.099 4.11333 155.952 3.89 156.965 3.89C157.765 3.89 158.425 4.02333 158.945 4.29C159.465 4.55667 159.879 4.89667 160.185 5.31C160.492 5.72333 160.719 6.16333 160.865 6.63C161.012 7.09667 161.105 7.54 161.145 7.96C161.192 8.37333 161.215 8.71 161.215 8.97V15H158.775ZM151.285 15V4.2H153.435V7.55H153.725V15H151.285Z" fill="#444444"/>
</svg>
